# xmcd
#
# Track frame offsets:
#	183
#	10578
#	22553
#	36883
#	49130
#	61700
#	72153
#	85728
#	99238
#	111663
#	125718
#	140235
#	153933
#	177160
#	188583
#	201355
#	214023
#	230033
#	243918
#	255905
#
# Disc length: 3569 seconds
#
# Revision: 2
# Processed by: cddbd v1.5.1PL0 Copyright (c) Steve Scherf et al.
# Submitted via: EasyCDDAExtractor 8.2.3.1
#
DISCID=080def14
DTITLE=B.B.King - The Best Of BB King Volume 2
DYEAR=1987
DGENRE=Blues
TTITLE0=Bad Luck Soul
TTITLE1=Get Out Of Here
TTITLE2=The Jungle
TTITLE3=Sugar Mama#
TTITLE4=Ten Long Years
TTITLE5=Bad Case Of Love
TTITLE6=House Rocker
TTITLE7=Sneakin' Round
TTITLE8=Shut Your Mouth
TTITLE9=The Letter
TTITLE10=I've Got A Right To Love My Baby
TTITLE11=The Woman I Love
TTITLE12=You Done Lost Your Good Thing Now
TTITLE13=Did You Ever Love A Woman
TTITLE14=B.B. Rock
TTITLE15=Rock Me Baby
TTITLE16=It's My Own Fault
TTITLE17=You Know I Love You#
TTITLE18=Low Rider
TTITLE19=You're Gonna Miss Me
EXTD=
EXTT0=
EXTT1=
EXTT2=
EXTT3=
EXTT4=
EXTT5=
EXTT6=
EXTT7=
EXTT8=
EXTT9=
EXTT10=
EXTT11=
EXTT12=
EXTT13=
EXTT14=
EXTT15=
EXTT16=
EXTT17=
EXTT18=
EXTT19=
PLAYORDER=
